# xmcd
#
# Track frame offsets: 
#        150
#        8545
#        28275
#        47237
#        68067
#        84547
#        100895
#        118757
#        143155
#        161837
#        183470
#        201942
#        221320
#        247162
#        266120
#        282252
#
# Disc length: 4428 seconds
#
# Revision: 0
# Processed by: cddbd v1.5.2PL0 Copyright (c) Steve Scherf et al.
# Submitted via: ExactAudioCopy v0.90b4
#
DISCID=f0114a10
DTITLE=Various Artist - Mo Thugs Family Chapter II: Family Reunion
DYEAR=1998
DGENRE=Hip-Hop
TTITLE0=Mo Thug Intro
TTITLE1=Mighty Mighty Warrior
TTITLE2=Mighty Mo Thug (ft. Layzie Bone)
TTITLE3=Heart Of It (ft. Layzie Bone)
TTITLE4=The Queen (ft. Krayzie Bone)
TTITLE5=Riot
TTITLE6=All Good (ft. Krayzie Bone)
TTITLE7=Ghetto Cowboy
TTITLE8=Believe (ft. Layzie Bone and Krayzie Bone)
TTITLE9=Urban Souljah
TTITLE10=Ain't Said No Names
TTITLE11=Mo Thuggin'
TTITLE12=U Don't Own Me (ft. Krayzie Bone)
TTITLE13=Ride With A Playa (ft. Krayzie Bone and Felecia)
TTITLE14=Pimpin' Ain't Easy
TTITLE15=Otherside - Otherside Outro
EXTD=Mo Thugs Family Scriptures\nChapter II: Family Reunion
EXTT0=
EXTT1=
EXTT2=
EXTT3=
EXTT4=
EXTT5=
EXTT6=
EXTT7=
EXTT8=
EXTT9=
EXTT10=
EXTT11=
EXTT12=
EXTT13=
EXTT14=
EXTT15=
PLAYORDER=
